<mxfile host="app.diagrams.net" modified="2023-09-01T10:42:25.937Z" agent="Mozilla/5.0 (Windows NT 10.0; Win64; x64; rv:109.0) Gecko/20100101 Firefox/117.0" etag="TZOccvklo13N4WGDQZIR" version="21.7.1" type="device">
  <diagram name="Seite-1" id="2p2rGL8eR-TmHDfR7AIV">
    <mxGraphModel dx="2049" dy="1117" grid="1" gridSize="10" guides="1" tooltips="1" connect="1" arrows="1" fold="1" page="0" pageScale="1" pageWidth="827" pageHeight="1169" math="0" shadow="0">
      <root>
        <mxCell id="0" />
        <mxCell id="1" parent="0" />
        <mxCell id="t03WTp-ZNTLmPf0HB2pE-1" value="" style="shape=cube;whiteSpace=wrap;html=1;boundedLbl=1;backgroundOutline=1;darkOpacity=0.05;darkOpacity2=0.1;size=110;direction=east;flipH=1;fillColor=#d5e8d4;strokeColor=#82b366;" vertex="1" parent="1">
          <mxGeometry x="100" y="90" width="130" height="420" as="geometry" />
        </mxCell>
        <mxCell id="t03WTp-ZNTLmPf0HB2pE-11" value="" style="shape=cube;whiteSpace=wrap;html=1;boundedLbl=1;backgroundOutline=1;darkOpacity=0.05;darkOpacity2=0.1;size=110;direction=east;flipH=1;fillColor=#dae8fc;strokeColor=#6c8ebf;" vertex="1" parent="1">
          <mxGeometry x="150" y="90" width="130" height="420" as="geometry" />
        </mxCell>
        <mxCell id="t03WTp-ZNTLmPf0HB2pE-12" value="" style="shape=cube;whiteSpace=wrap;html=1;boundedLbl=1;backgroundOutline=1;darkOpacity=0.05;darkOpacity2=0.1;size=110;direction=east;flipH=1;fillColor=#d5e8d4;strokeColor=#82b366;" vertex="1" parent="1">
          <mxGeometry x="200" y="90" width="130" height="420" as="geometry" />
        </mxCell>
        <mxCell id="t03WTp-ZNTLmPf0HB2pE-13" value="" style="shape=cube;whiteSpace=wrap;html=1;boundedLbl=1;backgroundOutline=1;darkOpacity=0.05;darkOpacity2=0.1;size=110;direction=east;flipH=1;fillColor=#f8cecc;strokeColor=#b85450;" vertex="1" parent="1">
          <mxGeometry x="250" y="90" width="130" height="420" as="geometry" />
        </mxCell>
        <mxCell id="t03WTp-ZNTLmPf0HB2pE-14" value="" style="shape=cube;whiteSpace=wrap;html=1;boundedLbl=1;backgroundOutline=1;darkOpacity=0.05;darkOpacity2=0.1;size=110;direction=east;flipH=1;fillColor=#d5e8d4;strokeColor=#82b366;" vertex="1" parent="1">
          <mxGeometry x="300" y="90" width="130" height="420" as="geometry" />
        </mxCell>
        <mxCell id="t03WTp-ZNTLmPf0HB2pE-15" value="" style="shape=cube;whiteSpace=wrap;html=1;boundedLbl=1;backgroundOutline=1;darkOpacity=0.05;darkOpacity2=0.1;size=110;direction=east;flipH=1;fillColor=#dae8fc;strokeColor=#6c8ebf;" vertex="1" parent="1">
          <mxGeometry x="350" y="90" width="130" height="420" as="geometry" />
        </mxCell>
        <mxCell id="t03WTp-ZNTLmPf0HB2pE-16" value="" style="shape=cube;whiteSpace=wrap;html=1;boundedLbl=1;backgroundOutline=1;darkOpacity=0.05;darkOpacity2=0.1;size=110;direction=east;flipH=1;fillColor=#d5e8d4;strokeColor=#82b366;" vertex="1" parent="1">
          <mxGeometry x="400" y="90" width="130" height="420" as="geometry" />
        </mxCell>
        <mxCell id="t03WTp-ZNTLmPf0HB2pE-17" value="" style="shape=cube;whiteSpace=wrap;html=1;boundedLbl=1;backgroundOutline=1;darkOpacity=0.05;darkOpacity2=0.1;size=110;direction=east;flipH=1;fillColor=#e1d5e7;strokeColor=#9673a6;" vertex="1" parent="1">
          <mxGeometry x="450" y="90" width="130" height="420" as="geometry" />
        </mxCell>
        <mxCell id="t03WTp-ZNTLmPf0HB2pE-18" value="" style="shape=cube;whiteSpace=wrap;html=1;boundedLbl=1;backgroundOutline=1;darkOpacity=0.05;darkOpacity2=0.1;size=110;direction=east;flipH=1;fillColor=#f8cecc;strokeColor=#b85450;" vertex="1" parent="1">
          <mxGeometry x="500" y="90" width="130" height="420" as="geometry" />
        </mxCell>
        <mxCell id="t03WTp-ZNTLmPf0HB2pE-21" value="" style="shape=cube;whiteSpace=wrap;html=1;boundedLbl=1;backgroundOutline=1;darkOpacity=0.05;darkOpacity2=0.1;flipV=0;flipH=1;fillColor=#d5e8d4;strokeColor=#82b366;" vertex="1" parent="1">
          <mxGeometry x="670" y="100" width="70" height="70" as="geometry" />
        </mxCell>
        <mxCell id="t03WTp-ZNTLmPf0HB2pE-22" value="&lt;font style=&quot;font-size: 36px;&quot;&gt;Residual Block / Stride 2&lt;/font&gt;" style="text;html=1;align=center;verticalAlign=middle;resizable=0;points=[];autosize=1;strokeColor=none;fillColor=none;" vertex="1" parent="1">
          <mxGeometry x="740" y="100" width="420" height="60" as="geometry" />
        </mxCell>
        <mxCell id="t03WTp-ZNTLmPf0HB2pE-23" value="" style="shape=cube;whiteSpace=wrap;html=1;boundedLbl=1;backgroundOutline=1;darkOpacity=0.05;darkOpacity2=0.1;flipV=0;flipH=1;fillColor=#dae8fc;strokeColor=#6c8ebf;" vertex="1" parent="1">
          <mxGeometry x="670" y="190" width="70" height="70" as="geometry" />
        </mxCell>
        <mxCell id="t03WTp-ZNTLmPf0HB2pE-24" value="&lt;font style=&quot;font-size: 36px;&quot;&gt;Residual Block&lt;br&gt;&lt;/font&gt;" style="text;html=1;align=center;verticalAlign=middle;resizable=0;points=[];autosize=1;strokeColor=none;fillColor=none;" vertex="1" parent="1">
          <mxGeometry x="740" y="190" width="260" height="60" as="geometry" />
        </mxCell>
        <mxCell id="t03WTp-ZNTLmPf0HB2pE-25" value="" style="shape=cube;whiteSpace=wrap;html=1;boundedLbl=1;backgroundOutline=1;darkOpacity=0.05;darkOpacity2=0.1;flipV=0;flipH=1;fillColor=#f8cecc;strokeColor=#b85450;" vertex="1" parent="1">
          <mxGeometry x="670" y="280" width="70" height="70" as="geometry" />
        </mxCell>
        <mxCell id="t03WTp-ZNTLmPf0HB2pE-29" value="&lt;font style=&quot;font-size: 36px;&quot;&gt;Attention Module&lt;br&gt;&lt;/font&gt;" style="text;html=1;align=center;verticalAlign=middle;resizable=0;points=[];autosize=1;strokeColor=none;fillColor=none;" vertex="1" parent="1">
          <mxGeometry x="740" y="285" width="290" height="60" as="geometry" />
        </mxCell>
        <mxCell id="t03WTp-ZNTLmPf0HB2pE-30" value="" style="shape=cube;whiteSpace=wrap;html=1;boundedLbl=1;backgroundOutline=1;darkOpacity=0.05;darkOpacity2=0.1;flipV=0;flipH=1;fillColor=#e1d5e7;strokeColor=#9673a6;" vertex="1" parent="1">
          <mxGeometry x="670" y="370" width="70" height="70" as="geometry" />
        </mxCell>
        <mxCell id="t03WTp-ZNTLmPf0HB2pE-31" value="&lt;font style=&quot;font-size: 36px;&quot;&gt;3x3 Conv Layer / Stride 2&lt;br&gt;&lt;/font&gt;" style="text;html=1;align=center;verticalAlign=middle;resizable=0;points=[];autosize=1;strokeColor=none;fillColor=none;" vertex="1" parent="1">
          <mxGeometry x="740" y="375" width="430" height="60" as="geometry" />
        </mxCell>
      </root>
    </mxGraphModel>
  </diagram>
</mxfile>
